<svg xmlns="http://www.w3.org/2000/svg" version="1.1" xmlns:xlink="http://www.w3.org/1999/xlink" width="200" height="200"><svg xmlns="http://www.w3.org/2000/svg" version="1.1" xmlns:xlink="http://www.w3.org/1999/xlink" width="200" height="200"><svg width="200" height="200" viewBox="0 0 200 200" fill="none" xmlns="http://www.w3.org/2000/svg">
<path d="M60.6887 154.597C56.7494 155.291 52.5611 155.725 48.1238 155.898C43.8023 156.153 39.6257 156.077 35.5939 155.671C31.5622 155.265 27.8896 154.592 24.5762 153.653C21.6915 152.842 19.5251 151.497 18.0772 149.62C16.6119 147.645 15.8186 145.449 15.6973 143.034C15.5759 140.618 16.0484 138.402 17.1145 136.387C18.1633 134.272 19.7682 132.72 21.929 131.73C24.0725 130.641 26.6851 130.485 29.7668 131.262C33.8217 132.374 38.2994 133.006 43.2002 133.158C48.1009 133.309 52.6193 133.02 56.7555 132.291C63.2553 131.145 67.6378 129.509 69.9031 127.383C72.2495 125.142 73.197 122.741 72.7455 120.18C72.3461 117.915 71.0893 116.258 68.975 115.209C66.9593 114.143 63.5503 113.526 58.748 113.357L40.8135 112.712C31.012 112.409 23.3629 110.204 17.866 106.096C12.3692 101.988 8.93486 96.044 7.56304 88.264C6.66007 83.143 6.87797 78.3321 8.21674 73.8312C9.63663 69.2145 12.0065 65.0904 15.3263 61.4587C18.7446 57.8097 22.9738 54.7285 28.0139 52.2151C33.1351 49.5859 38.9949 47.6895 45.5931 46.5261C50.7141 45.6231 55.9885 45.3023 61.4164 45.5638C66.9253 45.7094 71.7999 46.5761 76.04 48.1639C78.5135 48.9463 80.4249 50.2847 81.7744 52.1791C83.1239 54.0736 83.8998 56.1707 84.1022 58.4705C84.2873 60.6718 83.8381 62.7311 82.7546 64.6484C81.7695 66.5483 80.1966 67.9934 78.0357 68.9837C75.9559 69.8581 73.2767 69.9243 69.9981 69.1824C66.9164 68.4057 63.5016 68.0432 59.7536 68.0948C56.0867 68.0306 52.5791 68.2937 49.2308 68.8841C45.587 69.5266 42.563 70.5167 40.1588 71.8545C37.7372 73.0939 35.9759 74.6229 34.875 76.4417C33.8726 78.2432 33.5538 80.1779 33.9184 82.246C34.2831 84.3141 35.4327 85.9392 37.3674 87.1212C39.3831 88.1873 42.7921 88.8048 47.5944 88.9734L65.3812 89.645C75.2985 90.0287 83.0375 92.1673 88.5981 96.0609C94.1586 99.9545 97.6075 105.693 98.9446 113.276C99.8475 118.397 99.6296 123.208 98.2909 127.709C96.9521 132.209 94.6228 136.276 91.303 139.907C87.9658 143.44 83.7279 146.472 78.5893 149.003C73.4507 151.534 67.4838 153.398 60.6887 154.597Z" fill="url(#paint0_linear_119_88)"></path>
<path d="M51.0801 150.33C47.0953 149.982 42.9375 149.317 38.6065 148.335C34.3665 147.463 30.3518 146.308 26.5625 144.873C22.7732 143.437 19.3998 141.837 16.4424 140.072C13.8659 138.542 12.1213 136.683 11.2085 134.495C10.3045 132.207 10.1065 129.881 10.6145 127.516C11.1225 125.152 12.1523 123.134 13.7039 121.463C15.2641 119.692 17.216 118.608 19.5596 118.211C21.9118 117.714 24.4758 118.239 27.2515 119.787C30.8801 121.911 35.0417 123.681 39.7363 125.095C44.4309 126.51 48.8702 127.4 53.0542 127.766C59.6291 128.342 64.2857 127.896 67.0239 126.429C69.8705 124.871 71.4072 122.797 71.6338 120.207C71.8342 117.916 71.0491 115.99 69.2783 114.43C67.6072 112.878 64.4741 111.399 59.8792 109.994L42.7228 104.728C33.3336 101.899 26.5159 97.7893 22.2696 92.3987C18.0232 87.0081 16.2443 80.3778 16.9328 72.5079C17.3861 67.3276 18.8417 62.737 21.2998 58.736C23.8662 54.6442 27.2227 51.2739 31.3693 48.6252C35.6155 45.9852 40.4981 44.1036 46.017 42.9803C51.6443 41.7662 57.7951 41.4511 64.4696 42.035C69.6498 42.4882 74.8276 43.5435 80.0028 45.2008C85.2864 46.7673 89.7705 48.8661 93.4552 51.4973C95.6419 52.8932 97.1418 54.6807 97.955 56.8599C98.7681 59.039 98.9749 61.2655 98.5752 63.5393C98.1842 65.7135 97.2173 67.5864 95.6745 69.1579C94.2312 70.7381 92.3379 71.7269 89.9943 72.1241C87.7591 72.4305 85.1541 71.801 82.1792 70.2358C79.4035 68.688 76.1988 67.454 72.5652 66.5338C69.0399 65.5227 65.5838 64.869 62.1967 64.5727C58.5108 64.2502 55.3335 64.4239 52.665 65.0939C50.0052 65.6643 47.9082 66.6854 46.3741 68.1573C44.9396 69.6379 44.1308 71.4242 43.9478 73.5162C43.7647 75.6082 44.4546 77.4754 46.0174 79.1179C47.6886 80.6694 50.8216 82.1481 55.4166 83.554L72.4235 88.8062C81.9036 91.7436 88.8253 95.8124 93.1887 101.012C97.5521 106.213 99.3982 112.648 98.7271 120.319C98.2739 125.499 96.8183 130.089 94.3602 134.09C91.9021 138.091 88.5998 141.416 84.4532 144.065C80.3153 146.614 75.437 148.446 69.8185 149.56C64.2 150.675 57.9539 150.932 51.0801 150.33Z" fill="url(#paint1_linear_119_88)"></path>
<path d="M104.805 154.162C104.805 154.162 104.805 78.6619 104.805 67.1619C104.805 55.6619 113.805 47.1619 125.805 47.1619C135.805 47.1619 151.472 47.1619 161.805 47.1619C173.805 47.1619 193.805 56.1619 193.805 81.1619C193.805 106.162 174.305 115.162 161.805 115.162H129.805" stroke="url(#paint2_linear_119_88)" stroke-width="3" stroke-linecap="round"></path>
<path d="M109.805 154.162V70.1619C109.805 58.1619 118.805 51.1619 130.805 51.1619C144.005 51.1619 154.639 51.1619 159.805 51.1619C172.805 51.1619 189.805 61.6619 189.805 81.1619C189.805 100.662 173.805 111.162 161.805 111.162H129.805" stroke="url(#paint3_linear_119_88)" stroke-width="3" stroke-linecap="round"></path>
<path d="M113.805 154.162V74.1619C113.805 62.1619 121.805 55.1619 133.805 55.1619C141.805 55.1619 151.472 55.1619 155.805 55.1619C172.805 55.1619 185.805 65.1619 185.805 81.1619C185.805 97.1619 172.805 107.162 160.805 107.162H129.805" stroke="url(#paint4_linear_119_88)" stroke-width="3" stroke-linecap="round"></path>
<path d="M117.805 154.162V76.1619C117.805 68.1619 122.805 59.1619 134.805 59.1619C147.605 59.1619 155.472 59.1619 156.805 59.1619C170.805 59.1619 181.805 67.1619 181.805 81.1619C181.805 95.1619 170.805 103.162 156.805 103.162H129.805" stroke="url(#paint5_linear_119_88)" stroke-width="3" stroke-linecap="round"></path>
<path d="M125.805 154.162V77.1619C125.805 71.1619 129.805 67.1619 135.805 67.1619C141.805 67.1619 152.472 67.1619 155.805 67.1619C163.805 67.1619 173.805 70.1619 173.805 81.1619C173.805 92.1619 163.805 95.1619 155.805 95.1619C149.005 95.1619 137.805 95.1619 131.805 95.1619H129.805V154.162" stroke="url(#paint6_linear_119_88)" stroke-width="3" stroke-linecap="round" stroke-linejoin="round"></path>
<path d="M121.805 154.162L121.805 77.1619C121.805 66.1619 129.805 63.1619 133.805 63.1619C144.805 63.1619 143.805 63.1619 155.805 63.1619C170.805 63.1619 177.805 71.1619 177.805 81.1619C177.805 91.1619 170.805 99.1619 155.805 99.1619C140.805 99.1619 131.305 99.1619 129.805 99.1619" stroke="url(#paint7_linear_119_88)" stroke-width="3" stroke-linecap="round"></path>
<rect x="146" y="138" width="36" height="16" rx="8" fill="url(#paint8_linear_119_88)"></rect>
<defs>
<linearGradient id="paint0_linear_119_88" x1="42.9605" y1="46.9903" x2="61.8968" y2="154.384" gradientUnits="userSpaceOnUse">
<stop stop-color="#06B6D4"></stop>
<stop offset="0.5" stop-color="#3B82F6"></stop>
<stop offset="1" stop-color="#8B5CF6"></stop>
</linearGradient>
<linearGradient id="paint1_linear_119_88" x1="61.8066" y1="41.802" x2="52.3022" y2="150.437" gradientUnits="userSpaceOnUse">
<stop stop-color="#8B5CF6"></stop>
<stop offset="0.5" stop-color="#3B82F6"></stop>
<stop offset="1" stop-color="#06B6D4"></stop>
</linearGradient>
<linearGradient id="paint2_linear_119_88" x1="149.305" y1="47.1619" x2="149.305" y2="154.162" gradientUnits="userSpaceOnUse">
<stop stop-color="#06B6D4"></stop>
<stop offset="0.5" stop-color="#3B82F6"></stop>
<stop offset="1" stop-color="#8B5CF6"></stop>
</linearGradient>
<linearGradient id="paint3_linear_119_88" x1="149.805" y1="51.1619" x2="149.805" y2="154.162" gradientUnits="userSpaceOnUse">
<stop stop-color="#06B6D4"></stop>
<stop offset="0.5" stop-color="#3B82F6"></stop>
<stop offset="1" stop-color="#8B5CF6"></stop>
</linearGradient>
<linearGradient id="paint4_linear_119_88" x1="149.805" y1="55.1619" x2="149.805" y2="154.162" gradientUnits="userSpaceOnUse">
<stop stop-color="#06B6D4"></stop>
<stop offset="0.5" stop-color="#3B82F6"></stop>
<stop offset="1" stop-color="#8B5CF6"></stop>
</linearGradient>
<linearGradient id="paint5_linear_119_88" x1="149.805" y1="59.1619" x2="149.805" y2="154.162" gradientUnits="userSpaceOnUse">
<stop stop-color="#06B6D4"></stop>
<stop offset="0.5" stop-color="#3B82F6"></stop>
<stop offset="1" stop-color="#8B5CF6"></stop>
</linearGradient>
<linearGradient id="paint6_linear_119_88" x1="149.805" y1="67.1619" x2="149.805" y2="154.162" gradientUnits="userSpaceOnUse">
<stop stop-color="#06B6D4"></stop>
<stop offset="0.5" stop-color="#3B82F6"></stop>
<stop offset="1" stop-color="#8B5CF6"></stop>
</linearGradient>
<linearGradient id="paint7_linear_119_88" x1="149.805" y1="63.1619" x2="149.805" y2="154.162" gradientUnits="userSpaceOnUse">
<stop stop-color="#06B6D4"></stop>
<stop offset="0.5" stop-color="#3B82F6"></stop>
<stop offset="1" stop-color="#8B5CF6"></stop>
</linearGradient>
<linearGradient id="paint8_linear_119_88" x1="182" y1="154" x2="146" y2="154" gradientUnits="userSpaceOnUse">
<stop stop-color="#06B6D4"></stop>
<stop offset="0.5" stop-color="#3B82F6"></stop>
<stop offset="1" stop-color="#8B5CF6"></stop>
</linearGradient>
</defs>
</svg></svg><style>@media (prefers-color-scheme: light) { :root { filter: none; } }
@media (prefers-color-scheme: dark) { :root { filter: none; } }
</style></svg>